<svg id="Capa_1" enable-background="new 0 0 511.287 511.287" height="512" viewBox="0 0 511.287 511.287" width="512" xmlns="http://www.w3.org/2000/svg"><g><g><g><path d="m92.418 477.062-75.815-388.043c-2.299-11.768 5.377-23.172 17.145-25.471l58.67-11.463 92.065-20.254 132.277 445.23h-224.342z" fill="#e5e1e5"/></g><path d="m92.418 320.607-44.781-229.205 44.781-8.75 68.018-11.169 29.795 276.508z" fill="#99e6fc"/><g id="XMLID_159_"><g><path d="m495.087 29.208v452.87c0 11.99-9.72 21.71-21.71 21.71h-359.25c-11.99 0-21.71-9.72-21.71-21.71v-452.87c0-11.99 9.72-21.71 21.71-21.71h359.25c11.99 0 21.71 9.72 21.71 21.71z" fill="#f9f7f8"/></g><path d="m287.025 457.882c-42.97 0-77.804-34.834-77.804-77.804v-372.58h-95.094c-11.99 0-21.71 9.72-21.71 21.71v452.87c0 11.99 9.72 21.71 21.71 21.71h359.25c11.99 0 21.71-9.72 21.71-21.71v-24.196z" fill="#efedef"/><path d="m465.087 281.367v-237.769c0-3.369-2.731-6.1-6.1-6.1h-330.469c-3.369 0-6.1 2.731-6.1 6.1v237.769z" fill="#fec165"/><path d="m209.221 37.498h-80.703c-3.369 0-6.1 2.731-6.1 6.1v237.769h86.803z" fill="#fdb441"/><circle cx="293.752" cy="216.451" fill="#fee903" r="116.804"/><path d="m209.221 297.058v-161.214c-19.995 20.962-32.272 49.351-32.272 80.607s12.277 59.645 32.272 80.607z" fill="#f4d902"/><g><path d="m442.327 248.618c-27.24-12.01-57.99-13.37-86.18-3.8l-24.2 8.2c-24.77 8.4-51.62 8.4-76.39 0l-24.2-8.2c-28.19-9.57-58.94-8.21-86.17 3.8l-22.77 10.04v49.79l37.896 15.776h283.632l21.142-15.776v-49.79z" fill="#99e6fc"/><path d="m209.221 324.224v-84.618c-21.625-2.951-43.801.088-64.033 9.012l-22.77 10.04v49.79l37.896 15.776z" fill="#62dbfb"/><path d="m465.087 308.448v29.188c0 2.58-2.092 4.672-4.672 4.672h-333.326c-2.58 0-4.672-2.092-4.672-4.672v-29.188l22.77-10.04c27.23-12.01 57.98-13.37 86.17-3.81l24.2 8.21c24.77 8.4 51.62 8.4 76.39 0l24.2-8.21c28.19-9.56 58.94-8.2 86.18 3.81z" fill="#62dbfb"/><path d="m127.089 342.308h82.132v-52.916c-21.625-2.947-43.801.092-64.033 9.016l-22.77 10.04v29.188c-.001 2.581 2.091 4.672 4.671 4.672z" fill="#01d0fb"/></g></g></g><g><path d="m473.378 0h-359.25c-16.106 0-29.21 13.104-29.21 29.21v16.698l-52.608 10.279c-15.808 3.088-26.156 18.462-23.067 34.27l75.676 387.329v4.29c0 16.107 13.104 29.211 29.21 29.211h359.25c16.107 0 29.211-13.104 29.211-29.211v-452.866c-.001-16.106-13.104-29.21-29.212-29.21zm-388.46 243.11-28.483-145.785 28.483-5.565zm0-166.634-38.721 7.565c-1.952.381-3.673 1.523-4.783 3.173-1.111 1.65-1.521 3.674-1.139 5.626l44.643 228.491v78.233l-60.954-311.983c-1.503-7.69 3.531-15.169 11.223-16.672l49.731-9.716zm402.671 405.6c0 7.836-6.375 14.211-14.211 14.211h-359.25c-7.835 0-14.21-6.375-14.21-14.211v-4.924c0-.012 0-.023 0-.035v-156.42c0-.012 0-.023 0-.035v-237.921c0-.012 0-.023 0-.035v-30.532c0-.012 0-.023 0-.035v-22.929c0-7.835 6.375-14.21 14.21-14.21h359.25c7.836 0 14.211 6.375 14.211 14.21z"/><path d="m465.089 29h-268.253c-4.143 0-7.5 3.358-7.5 7.5s3.357 7.5 7.5 7.5h260.753v203.155l-12.24-5.397c-8.826-3.892-17.976-6.727-27.281-8.51.558-4.824.846-9.695.846-14.56 0-33.491-13.061-64.961-36.774-88.615-2.936-2.926-7.683-2.919-10.607.014s-2.919 7.682.014 10.606c20.873 20.819 32.368 48.518 32.368 77.995 0 4.216-.266 8.434-.742 12.613-16.578-1.162-33.362.958-49.434 6.41l-24.195 8.207c-23.077 7.828-48.498 7.828-71.577 0l-24.195-8.207c-16.072-5.451-32.855-7.572-49.434-6.409-.476-4.18-.742-8.398-.742-12.614 0-60.742 49.417-110.159 110.159-110.159 18.889 0 37.528 4.867 53.903 14.074 3.608 2.028 8.184.749 10.213-2.862 2.03-3.61.749-8.183-2.861-10.213-18.615-10.467-39.797-15.999-61.255-15.999-69.013 0-125.159 56.146-125.159 125.159 0 4.864.287 9.736.846 14.56-9.305 1.784-18.456 4.618-27.282 8.51l-12.239 5.397v-203.155h34.956c4.143 0 7.5-3.358 7.5-7.5s-3.357-7.5-7.5-7.5h-42.456c-4.143 0-7.5 3.358-7.5 7.5v222.251.036 49.75.036 32.735c0 4.142 3.357 7.5 7.5 7.5h261.153c4.143 0 7.5-3.358 7.5-7.5s-3.357-7.5-7.5-7.5h-253.656v-20.474l18.291-8.066c25.585-11.282 54.261-12.549 80.742-3.566l24.195 8.207c13.093 4.441 26.85 6.662 40.607 6.662s27.514-2.221 40.606-6.662l24.195-8.207c26.481-8.982 55.155-7.715 80.741 3.566l18.292 8.066v20.474h-42.056c-4.143 0-7.5 3.358-7.5 7.5s3.357 7.5 7.5 7.5h49.556c4.143 0 7.5-3.358 7.5-7.5v-32.734c0-.013 0-.026 0-.039v-49.748c0-.012 0-.024 0-.036v-222.251c.002-4.142-3.355-7.5-7.498-7.5zm-7.5 267.94-12.24-5.397c-29.031-12.801-61.565-14.238-91.611-4.046l-24.195 8.207c-23.077 7.828-48.498 7.828-71.577 0l-24.195-8.207c-30.045-10.19-62.579-8.755-91.612 4.046l-12.239 5.397v-33.392l18.292-8.065c9.721-4.286 19.888-7.122 30.21-8.505.274-.018.549-.047.826-.096.026-.005.05-.013.075-.017 16.563-2.08 33.503-.419 49.63 5.052l24.195 8.207c13.093 4.441 26.85 6.662 40.607 6.662s27.514-2.221 40.606-6.662l24.195-8.207c16.126-5.47 33.063-7.132 49.623-5.053.028.005.054.014.082.019.28.05.558.078.835.096 10.32 1.383 20.484 4.219 30.202 8.504l18.291 8.065z"/></g></g></svg>