<svg id="Layer_5" enable-background="new 0 0 64 64" height="512" viewBox="0 0 64 64" width="512" xmlns="http://www.w3.org/2000/svg"><g><g><g><path d="m37 26.77v-8.77-12c0-2.21-1.79-4-4-4h-22c-2.21 0-4 1.79-4 4v12 16 17c0-3.12 1.59-5.87 4-7.48v-4.52c0-.55.45-1 1-1h12.38c1.77-1.18 3.87-1.9 6.14-1.98.18-.69.4-1.37.66-2.02.28-.69.61-1.36.98-2 1.2-2.09 2.86-3.87 4.85-5.22z" fill="#fcd770"/></g><g><path d="m11 13v-6c0-.55.45-1 1-1h20c.55 0 1 .45 1 1v6c0 .55-.45 1-1 1h-20c-.55 0-1-.45-1-1z" fill="#b4dd7f"/></g><g><path d="m33 23v6c0 .55-.45 1-1 1h-20c-.55 0-1-.45-1-1v-6c0-.55.45-1 1-1h20c.55 0 1 .45 1 1z" fill="#b4dd7f"/></g><g><path d="m12 38h12.38c-1.86 1.22-3.34 2.97-4.28 5-1.23-.64-2.62-1-4.1-1-1.85 0-3.57.56-5 1.52v-4.52c0-.55.45-1 1-1z" fill="#b4dd7f"/></g><g><path d="m59.86 31.99c-2.77-4.78-7.94-7.99-13.86-7.99-3.34 0-6.44 1.03-8.99 2.78-1.99 1.35-3.65 3.13-4.85 5.22-.37.64-.7 1.31-.98 2-.26.65-.48 1.33-.66 2.02.16-.02.32-.02.48-.02 2.63 0 5.07.85 7.05 2.28.69.51 1.33 1.08 1.9 1.72 1.9 2.12 3.05 4.92 3.05 8 3.51 0 6.42 2.58 6.91 5.95.06.34.09.69.09 1.05 0 .16-.01.32-.03.48h.01c4.21-1.08 7.75-3.82 9.87-7.48 1.37-2.35 2.15-5.08 2.15-8s-.78-5.66-2.14-8.01z" fill="#69d6f4"/></g><g><path d="m39.95 40c1.9 2.12 3.05 4.92 3.05 8 3.51 0 6.42 2.58 6.91 5.95.06.34.09.69.09 1.05 0 .16-.01.32-.03.48-.23 3.65-3.26 6.52-6.97 6.52h-36c-2.76 0-5-2.24-5-5s2.24-5 5-5c.02 0 .04.01.06.01v-.01c-.04-.33-.06-.66-.06-1 0-3.12 1.59-5.87 4-7.48 1.43-.96 3.15-1.52 5-1.52 1.48 0 2.87.36 4.1 1 .94-2.03 2.42-3.78 4.28-5 1.77-1.18 3.87-1.9 6.14-1.98.16-.02.32-.02.48-.02 2.63 0 5.07.85 7.05 2.28.69.51 1.33 1.08 1.9 1.72z" fill="#e6e9ed"/></g><g><circle cx="36" cy="54" fill="#ff826e" r="2"/></g><g><circle cx="28" cy="54" fill="#ff826e" r="2"/></g><g><circle cx="20" cy="54" fill="#ff826e" r="2"/></g></g><g><path d="m55.375 12.219 1.25 1.562 5.976-4.781-5.976-4.781-1.25 1.562 2.774 2.219h-16.149v2h16.149z"/><path d="m47.625 20.219-2.774-2.219h16.149v-2h-16.149l2.774-2.219-1.25-1.562-5.976 4.781 5.976 4.781z"/><path d="m63 40c0-9.374-7.626-17-17-17-2.868 0-5.598.722-8 2.007v-19.007c0-2.757-2.243-5-5-5h-22c-2.757 0-5 2.243-5 5v45 .083c-2.834.478-5 2.949-5 5.917 0 3.309 2.691 6 6 6h36c3.985 0 7.29-2.932 7.892-6.751 7.16-2.15 12.108-8.725 12.108-16.249zm-19.041 7c-.168-2.199-.892-4.241-2.022-6h11.046c-.068 2.124-.354 4.162-.822 6zm7.592 2c-.362 1.005-.784 1.92-1.262 2.721-.473-1.046-1.162-1.972-2.013-2.721zm-19.551-20h-20v-6h20zm19.546 2h-11.105c1.297-3.636 3.336-6 5.559-6 2.232 0 4.254 2.387 5.546 6zm-13.227 0h-4.296c1.746-2.327 4.134-4.105 6.875-5.099-1.041 1.326-1.921 3.053-2.579 5.099zm-5.563 2h5.019c-.26 1.127-.466 2.318-.597 3.575-1.602-.87-3.404-1.408-5.32-1.534.248-.71.554-1.388.898-2.041zm7.079 0h12.324c.462 1.821.746 3.858.816 6h-12.621c-.399-.414-.82-.807-1.27-1.166.121-1.721.377-3.352.751-4.834zm21.114 6h-5.975c-.063-2.139-.322-4.16-.752-6h5.034c.961 1.812 1.55 3.845 1.693 6zm-5.966 2h5.975c-.143 2.141-.735 4.177-1.7 6h-5.05c.441-1.872.71-3.902.775-6zm2.989-10h-4.308c-.658-2.023-1.528-3.762-2.566-5.089 2.759 1.002 5.137 2.785 6.874 5.089zm-23.972-3.013v-4.987c0-1.103-.897-2-2-2h-20c-1.103 0-2 .897-2 2v6c0 1.103.897 2 2 2h19.604c-.399.64-.765 1.303-1.08 2h-22.524v-14h28v7.273c-.71.518-1.378 1.091-2 1.714zm-23-24.987h22c1.654 0 3 1.346 3 3v11h-28v-11c0-1.654 1.346-3 3-3zm-3 32h21.783c-.007.022-.013.045-.02.067-2.033.197-3.964.871-5.655 1.933h-12.108c-1.103 0-2 .897-2 2v4.019c-.758.571-1.431 1.246-2 2.006zm13.642 4c-.77.8-1.446 1.701-1.997 2.691-1.163-.459-2.384-.691-3.645-.691-1.422 0-2.774.303-4 .841v-2.841zm21.358 22h-36c-2.206 0-4-1.794-4-4 0-2.174 1.744-3.944 3.905-3.995l.154.001.477-.003.641.003-.124-1.111c-.032-.294-.053-.592-.053-.895 0-4.411 3.589-8 8-8 1.275 0 2.502.298 3.646.886l.929.477.437-.949c1.792-3.896 5.713-6.414 9.988-6.414 6.065 0 11 4.935 11 11v1h1c3.309 0 6 2.691 6 6s-2.691 6-6 6zm8.092-6.912c1.042-1.337 1.908-3.083 2.559-5.088h4.334c-1.722 2.287-4.093 4.08-6.893 5.088z"/><path d="m29.249 41.22-.498-1.937c-.734.189-1.444.472-2.11.841l.969 1.749c.518-.286 1.07-.506 1.639-.653z"/><path d="m31 39v2c3.859 0 7 3.14 7 7 0 .298-.019.591-.054.879l1.984.242c.047-.374.07-.751.07-1.121 0-4.962-4.037-9-9-9z"/><path d="m10 51c0 .834.168 1.642.5 2.4l1.832-.801c-.22-.504-.332-1.042-.332-1.599 0-2.206 1.794-4 4-4v-2c-3.309 0-6 2.691-6 6z"/><path d="m20 51c-1.654 0-3 1.346-3 3s1.346 3 3 3 3-1.346 3-3-1.346-3-3-3zm0 4c-.552 0-1-.449-1-1s.448-1 1-1 1 .449 1 1-.448 1-1 1z"/><path d="m28 51c-1.654 0-3 1.346-3 3s1.346 3 3 3 3-1.346 3-3-1.346-3-3-3zm0 4c-.552 0-1-.449-1-1s.448-1 1-1 1 .449 1 1-.448 1-1 1z"/><path d="m36 51c-1.654 0-3 1.346-3 3s1.346 3 3 3 3-1.346 3-3-1.346-3-3-3zm0 4c-.552 0-1-.449-1-1s.448-1 1-1 1 .449 1 1-.448 1-1 1z"/><path d="m12 15h20c1.103 0 2-.897 2-2v-6c0-1.103-.897-2-2-2h-20c-1.103 0-2 .897-2 2v6c0 1.103.897 2 2 2zm0-8h20l.001 6h-20.001z"/><path d="m14 9h2v2h-2z"/><path d="m18 9h2v2h-2z"/><path d="m28 25h2v2h-2z"/><path d="m24 25h2v2h-2z"/></g></g></svg>